<?xml version="1.0" encoding="UTF-8"?>
<!-- Trimmed by Minoa on 23 July 2019. -->
<svg xmlns="http://www.w3.org/2000/svg" width="75" height="75" viewBox="0 0 74.9 74.9">
	<title>NYCS Bullet, 1967 Set - 42nd Street Shuttle</title>
	<circle cx="37.45" cy="37.45" r="28.5625" style="fill:#00ADD0"/>
	<path d="M19.821,42.091 c0.836,1.232 1.859,2.134 3.069,2.706 1.232,0.572 2.574,0.858 4.026,0.858 0.52799,3e-6 1.089,-0.044 1.683,-0.132 0.59399,-0.11 1.133,-0.275 1.617,-0.495 0.48398,-0.242 0.87998,-0.55 1.188,-0.924 0.32998,-0.396 0.49498,-0.87999 0.495,-1.452 -1.6e-5,-0.46199 -0.11002,-0.84699 -0.33,-1.155 -0.19802,-0.30799 -0.50602,-0.57199 -0.924,-0.792 -0.41801,-0.24199 -0.92401,-0.45099 -1.518,-0.627 -0.59401,-0.17599 -1.287,-0.35199 -2.079,-0.528 l-2.607,-0.594 c-0.94601,-0.21999 -1.848,-0.48399 -2.706,-0.792 -0.836,-0.30799 -1.584,-0.70399 -2.244,-1.188 -0.638,-0.50599 -1.155,-1.122 -1.551,-1.848 -0.374,-0.74798 -0.561,-1.661 -0.561,-2.739 -1e-6,-1.232 0.264,-2.31 0.792,-3.234 0.55,-0.92398 1.254,-1.683 2.112,-2.277 0.858,-0.61598 1.826,-1.067 2.904,-1.353 1.1,-0.30798 2.2,-0.46198 3.3,-0.462 2.024,2.4e-5 3.85,0.38502 5.478,1.155 1.65,0.74802 3.091,1.936 4.323,3.564 l-3.663,2.772 c-0.57202,-1.078 -1.386,-1.914 -2.442,-2.508 -1.034,-0.59398 -2.277,-0.89098 -3.729,-0.891 -1.276,2e-5 -2.343,0.23102 -3.201,0.693 -0.83601,0.44002 -1.254,1.078 -1.254,1.914 -6e-6,0.48402 0.12099,0.89102 0.363,1.221 0.26399,0.30802 0.61599,0.57202 1.056,0.792 0.46199,0.22002 0.97899,0.40702 1.551,0.561 0.59399,0.15402 1.221,0.29701 1.881,0.429 l2.871,0.627 c0.87998,0.19801 1.727,0.45101 2.541,0.759 0.81398,0.28601 1.529,0.68201 2.145,1.188 0.63798,0.48401 1.144,1.111 1.518,1.881 0.39598,0.74801 0.59398,1.683 0.594,2.805 -2e-5,1.43 -0.30802,2.64 -0.924,3.63 -0.61602,0.99 -1.419,1.793 -2.409,2.409 -0.96802,0.594 -2.068,1.023 -3.3,1.287 -1.232,0.264 -2.453,0.396 -3.663,0.396 -0.96801,-10e-7 -1.936,-0.11 -2.904,-0.33 -0.96801,-0.198 -1.903,-0.506 -2.805,-0.924 -0.88,-0.418 -1.705,-0.935 -2.475,-1.551 -0.77,-0.616 -1.43,-1.331 -1.98,-2.145 l3.762,-2.706zM41.219,42.091 c0.836,1.232 1.859,2.134 3.069,2.706 1.232,0.572 2.574,0.858 4.026,0.858 0.52799,3e-6 1.089,-0.044 1.683,-0.132 0.59399,-0.11 1.133,-0.275 1.617,-0.495 0.48399,-0.242 0.87998,-0.55 1.188,-0.924 0.32998,-0.396 0.49498,-0.87999 0.495,-1.452 -1.5e-5,-0.46199 -0.11002,-0.84699 -0.33,-1.155 -0.19802,-0.30799 -0.50602,-0.57199 -0.924,-0.792 -0.41801,-0.24199 -0.92401,-0.45099 -1.518,-0.627 -0.59401,-0.17599 -1.287,-0.35199 -2.079,-0.528 l-2.607,-0.594 c-0.94601,-0.21999 -1.848,-0.48399 -2.706,-0.792 -0.836,-0.30799 -1.584,-0.70399 -2.244,-1.188 -0.638,-0.50599 -1.155,-1.122 -1.551,-1.848 -0.374,-0.74798 -0.561,-1.661 -0.561,-2.739 -10e-7,-1.232 0.264,-2.31 0.792,-3.234 0.55,-0.92398 1.254,-1.683 2.112,-2.277 0.858,-0.61598 1.826,-1.067 2.904,-1.353 1.1,-0.30798 2.2,-0.46198 3.3,-0.462 2.024,2.4e-5 3.85,0.38502 5.478,1.155 1.65,0.74802 3.091,1.936 4.323,3.564 l-3.663,2.772 c-0.57202,-1.078 -1.386,-1.914 -2.442,-2.508 -1.034,-0.59398 -2.277,-0.89098 -3.729,-0.891 -1.276,2e-5 -2.343,0.23102 -3.201,0.693 -0.83601,0.44002 -1.254,1.078 -1.254,1.914 -5e-6,0.48402 0.12099,0.89102 0.363,1.221 0.26399,0.30802 0.61599,0.57202 1.056,0.792 0.46199,0.22002 0.97899,0.40702 1.551,0.561 0.59399,0.15402 1.221,0.29701 1.881,0.429 l2.871,0.627 c0.87999,0.19801 1.727,0.45101 2.541,0.759 0.81398,0.28601 1.529,0.68201 2.145,1.188 0.63798,0.48401 1.144,1.111 1.518,1.881 0.39598,0.74801 0.59398,1.683 0.594,2.805 -2e-5,1.43 -0.30802,2.64 -0.924,3.63 -0.61602,0.99 -1.419,1.793 -2.409,2.409 -0.96802,0.594 -2.068,1.023 -3.3,1.287 -1.232,0.264 -2.453,0.396 -3.663,0.396 -0.96801,-10e-7 -1.936,-0.11 -2.904,-0.33 -0.96801,-0.198 -1.903,-0.506 -2.805,-0.924 -0.88,-0.418 -1.705,-0.935 -2.475,-1.551 -0.77,-0.616 -1.43,-1.331 -1.98,-2.145 l3.762,-2.706z" fill="#FFF"/>
</svg>